# xmcd
#
# Track frame offsets:
#	150
#	13929
#	24237
#	34577
#	45123
#	56761
#	71182
#	83615
#	93878
#	102340
#	112242
#	121508
#	133211
#	143850
#	154141
#	164542
#	174019
#	184004
#	195522
#	207322
#	219294
#	229591
#
# Disc length: 3222 seconds
#
# Revision: 1
# Processed by: cddbd v1.4PL0 Copyright (c) Steve Scherf et al.
# Submitted via: audiograbber 1.82.02
#
DISCID=210c9416
DTITLE=Five Satins - Original Master Tapes Collection, Vol 1
DYEAR=1900
DGENRE=Doo-Wop
TTITLE0=In The Still Of The Night
TTITLE1=Wonderful Girl
TTITLE2=Oh Happy Day
TTITLE3=Moonlight And I
TTITLE4=All Mine
TTITLE5=Weeping Willow
TTITLE6=When The Swallows Come Back To Capistrano(take 1)
TTITLE7=Our Love Is Forever
TTITLE8=The Jones Girl
TTITLE9=Baby Face
TTITLE10=Rose Mary
TTITLE11=Please Be Mine Tonight
TTITLE12=Skippity Doo
TTITLE13=Again
TTITLE14=When Your Love Comes Along
TTITLE15=Sugar
TTITLE16=A Night To Remember
TTITLE17=Shadows
TTITLE18=Wishing Ring
TTITLE19=I've Lost
TTITLE20=Candlelight
TTITLE21=I'll Be Seeing You
EXTD=
EXTT0=
EXTT1=
EXTT2=
EXTT3=
EXTT4=
EXTT5=
EXTT6=
EXTT7=
EXTT8=
EXTT9=
EXTT10=
EXTT11=
EXTT12=
EXTT13=
EXTT14=
EXTT15=
EXTT16=
EXTT17=
EXTT18=
EXTT19=
EXTT20=
EXTT21=
PLAYORDER=
